# xmcd CD database file
# Copyright (C) 1995 Ti Kan
#
# Track frame offsets:
#	150
#	28433
#	61564
#	86443
#	112345
#	140910
#	169473
#	197868
#	219223
#	243161
#	279758
#	315067
#
# Disc length: 4412 seconds
#
# Revision: 1
# Processed by: cddbd v1.5PL3 Copyright (c) Steve Scherf et al.
# Submitted via: NotifyCDPlayer 1.60beta16
#
DISCID=a7113a0c
DTITLE=Gordon Goodwin's Big Phat Band - XXL
DYEAR=2003
DGENRE=Jazz
TTITLE0=High Maintenance
TTITLE1=A Game of Inches
TTITLE2=Comes Love
TTITLE3=Thad Said No
TTITLE4=Hunting Wabbits
TTITLE5=The Quiet Corner
TTITLE6=Horn of Puente
TTITLE7=It's All Right With Me
TTITLE8=The Jazz Police
TTITLE9=Mozart 40th Symphony in Gm
TTITLE10=What Sammy Said
TTITLE11=Let The Good Times Roll
EXTD=YEAR: 2003
EXTT0=
EXTT1=
EXTT2=
EXTT3=
EXTT4=
EXTT5=
EXTT6=
EXTT7=
EXTT8=
EXTT9=
EXTT10=
EXTT11=
PLAYORDER=
